#tb 0: 1/1000
0,          0,          0,        0,  1536000, 0xf1765db3
0,       1739,       1739,        0,  1536000, 0x343a602f
0,       1839,       1839,        0,  1536000, 0x70f16029
0,       1939,       1939,        0,  1536000, 0xa1da62e1
0,       1940,       1940,        0,  1536000, 0x16c36270
0,       2039,       2039,        0,  1536000, 0x453965a5
0,       2040,       2040,        0,  1536000, 0x907a65bd
0,       2139,       2139,        0,  1536000, 0xeee672c8
0,       2239,       2239,        0,  1536000, 0x20c88b29
0,       2240,       2240,        0,  1536000, 0x557089b9
0,       2339,       2339,        0,  1536000, 0x70f67eef
0,       2639,       2639,        0,  1536000, 0xb5b77248
0,       2739,       2739,        0,  1536000, 0x88cf7350
0,       2740,       2740,        0,  1536000, 0x7be871df
0,       2839,       2839,        0,  1536000, 0xdbc67126
0,       2840,       2840,        0,  1536000, 0xc12f7131
0,       4339,       4339,        0,  1536000, 0xb2e270d8
0,       4340,       4340,        0,  1536000, 0xc31e71d3
0,       4439,       4439,        0,  1536000, 0xe39e6c58
0,       4539,       4539,        0,  1536000, 0xf2027181
0,       4540,       4540,        0,  1536000, 0x8c6a74ab
0,       4639,       4639,        0,  1536000, 0x9c1c81b6
0,       4739,       4739,        0,  1536000, 0xc18c7f14
0,       4838,       4838,        0,  1536000, 0x06895cc8
0,       4839,       4839,        0,  1536000, 0xb72148a7
0,       4840,       4840,        0,  1536000, 0x0fe9890e
0,       4841,       4841,        0,  1536000, 0x94e3897f
0,       6338,       6338,        0,  1536000, 0x71afd197
0,       7038,       7038,        0,  1536000, 0xff4dd121
0,       7039,       7039,        0,  1536000, 0xbe93111d
0,       7138,       7138,        0,  1536000, 0xebc6051e
0,       7238,       7238,        0,  1536000, 0x3ec6e73d
0,       7338,       7338,        0,  1536000, 0x6326e3c9
0,       7438,       7438,        0,  1536000, 0xcc8fcee1
0,       7439,       7439,        0,  1536000, 0x35abce72
0,       7638,       7638,        0,  1536000, 0xc98b7b20
0,       7738,       7738,        0,  1536000, 0xc5c06520
0,       8038,       8038,        0,  1536000, 0xce0853d8
0,       8228,       8228,        0,  1536000, 0xaf0ae816
0,       9417,       9417,        0,  1536000, 0xa49eaf86
0,       9807,       9807,        0,  1536000, 0xa707af86
